<?xml version="1.0" encoding="utf-8"?>
<!-- Generator: Adobe Illustrator 24.2.1, SVG Export Plug-In . SVG Version: 6.00 Build 0)  -->
<svg version="1.1" id="Layer_1" xmlns="http://www.w3.org/2000/svg" xmlns:xlink="http://www.w3.org/1999/xlink" x="0px" y="0px"
	 viewBox="0 0 120 120" style="enable-background:new 0 0 120 120;" xml:space="preserve">
<style type="text/css">
	.st0{fill:#E95B31;}
	.st1{fill:#227AFF;}
	.st2{fill:#FFFFFF;}
	.st3{fill:#AEDCFF;}
</style>
<g>
	<g id="icon_members" transform="translate(-808 -127)">
		<g id="members_logo" transform="translate(841 160)">
			<path id="bg-2" class="st0" d="M85.9,9.1C84.4-2,80.5-12.1,73.5-19.5l0,0c-7.4-7-17.5-10.9-28.6-12.4C39-32.7,33-33.1,27-33
				c-6-0.1-12,0.2-17.9,1.1C-2-30.4-12.1-26.5-19.5-19.5c-7,7.4-10.9,17.5-12.4,28.6C-32.7,15-33.1,21-33,27c-0.1,6,0.2,12,1.1,17.9
				c1.5,11.1,5.4,21.2,12.4,28.6c7.4,7,17.5,10.9,28.6,12.4C15,86.7,21,87.1,27,87c6,0.1,12-0.2,17.9-1.1
				c11.1-1.5,21.2-5.4,28.6-12.4l0,0c7-7.4,10.9-17.5,12.4-28.6C86.7,39,87.1,33,87,27C87.1,21,86.7,15,85.9,9.1"/>
			<g id="members_logo-2" transform="translate(0 0.001)">
				<g id="Group_620" transform="translate(0 0)">
					<path id="Path_427" class="st1" d="M85.9,9c-2.1-15.7-8.6-24.6-12.3-28.6C66.6-26.1,56.8-30.3,45-31.9
						C39.8-32.6,34.5-33,29.2-33c-1.4,0-2.2,0-2.2,0c-0.1,0-0.8,0-2.3,0c-5.3,0-10.5,0.4-15.7,1.1c-11.8,1.6-21.7,5.8-28.6,12.3
						C-26.1-12.6-30.3-2.7-31.9,9C-32.7,15-33.1,21-33,27c-0.1,6,0.2,12,1.1,18c1.6,11.8,5.8,21.7,12.4,28.6
						C-12.6,80.1-2.8,84.3,9,85.9c5.2,0.7,10.5,1.1,15.7,1.1c1.4,0,2.2,0,2.2,0c0.1,0,0.8,0,2.2,0c5.3,0,10.5-0.4,15.7-1.1
						c11.8-1.6,21.7-5.8,28.6-12.3c6.5-6.9,10.8-16.8,12.3-28.6C86.7,39,87.1,33,87,27C87.1,21,86.7,15,85.9,9z"/>
				</g>
				<g id="Group_622" transform="translate(32.052 34.745)">
					<path id="Path_428" class="st2" d="M-26.7-25.9v0.1C-26.7-25.8-26.7-25.8-26.7-25.9L-26.7-25.9z"/>
					<g id="Group_621">
						<path id="Path_429" class="st2" d="M-25.6-14.4l-2-2.1c-1-0.9-2.2-1.4-3.5-1.5c-2,0-4.6,1.2-5.2,4.9v25.4l0,0
							c0.4,5.3,5,9.3,10.3,9c4.8-0.3,8.7-4.2,9-9l0,0V-5.8c-0.2-0.2-0.4-0.4-0.7-0.7L-25.6-14.4z"/>
						<path id="Path_430" class="st2" d="M26.4-25.9c0-2.4-0.9-4.7-2.4-6.5c-2.2-2.6-5.4-4.2-8.8-4.2c-3,0.1-5.9,1.2-8,3.3
							c-1.3,1-6.1,6.1-8,8c0.8-0.5,1.8-0.8,2.8-0.8c2.2,0,5.2,1.8,5.2,5.1v33.3l0,0c0.4,5.3,5,9.3,10.3,9c4.8-0.3,8.7-4.2,9-9l0,0
							L26.4-25.9L26.4-25.9z"/>
						<path id="Path_431" class="st3" d="M1.9-26.1c-1,0-2,0.2-2.8,0.8C-1-25.2-1.1-25.1-1.2-25c-0.9,1.1-2.1,1.9-3.6,2
							c-2.1,0-2.9-1-2.9-1l-8.4-8.4c-4-4-6.9-4-6.9-4c-2.3-0.4-4.7-0.1-6.8,0.9c-5.9,2.7-6.5,8.8-6.6,9.7c0,0.1,0,0.1,0,0.1v12.6
							c0.6-3.7,3.3-4.9,5.2-4.9c1.3,0.1,2.6,0.6,3.5,1.5l2,2.1l7.9,7.9c0.2,0.3,0.4,0.4,0.7,0.7c3.9,4,5.6,4.7,5.6,4.7
							C-9.3,0-7,0.5-4.6,0.4C-3,0.4-1.4,0,0.2-0.5c2.8-0.7,7-5.3,7-5.3V-21C7.1-24.3,4.1-26.1,1.9-26.1z"/>
					</g>
				</g>
			</g>
		</g>
	</g>
</g>
</svg>
