<?xml version="1.0" encoding="utf-8"?>
<!-- Generator: Adobe Illustrator 24.2.1, SVG Export Plug-In . SVG Version: 6.00 Build 0)  -->
<svg version="1.1" id="Layer_1" xmlns="http://www.w3.org/2000/svg" xmlns:xlink="http://www.w3.org/1999/xlink" x="0px" y="0px"
	 viewBox="0 0 120 120" style="enable-background:new 0 0 120 120;" xml:space="preserve">
<style type="text/css">
	.st0{fill:#60BAFF;}
	.st1{opacity:0.1;}
	.st2{clip-path:url(#SVGID_2_);}
	.st3{fill-rule:evenodd;clip-rule:evenodd;fill:#FFFFFF;}
	.st4{fill-rule:evenodd;clip-rule:evenodd;fill:#60BAFF;}
	.st5{clip-path:url(#SVGID_4_);fill-rule:evenodd;clip-rule:evenodd;fill:#0096D2;}
</style>
<g>
	<g>
		<g>
			<g>
				<path class="st0" d="M118.1,42.4c-1.5-11-5.3-20.9-12.2-28.2h0C98.6,7.3,88.6,3.4,77.6,1.9C67.1,0.5,60,0.9,60,0.9
					s-7.1-0.3-17.6,1c-11,1.5-20.9,5.3-28.2,12.2C7.3,21.4,3.4,31.4,1.9,42.4C0.5,52.9,0.9,60,0.9,60s-0.3,7.1,1,17.6
					c1.5,11,5.3,20.9,12.2,28.2c7.3,6.9,17.2,10.7,28.2,12.2c10.5,1.4,17.6,1,17.6,1s7.1,0.3,17.6-1c11-1.5,20.9-5.3,28.2-12.2h0
					c6.9-7.3,10.7-17.2,12.2-28.2c1.4-10.5,1-17.6,1-17.6S119.5,52.9,118.1,42.4"/>
			</g>
			<g>
				<g class="st1">
					<g>
						<g>
							<defs>
								<rect id="SVGID_1_" x="0" y="0" width="120" height="120"/>
							</defs>
							<clipPath id="SVGID_2_">
								<use xlink:href="#SVGID_1_"  style="overflow:visible;"/>
							</clipPath>
							<path class="st2" d="M62.2,0.8c2.9,0,8.4,0.2,15.4,1.1c11,1.5,20.9,5.3,28.2,12.2h0c6.9,7.3,10.7,17.3,12.2,28.2
								c1.4,10.5,1,17.6,1,17.6s0.3,7.1-1,17.6c-1.5,11-5.3,20.9-12.2,28.2l0,0c-7.3,6.9-17.3,10.7-28.2,12.2
								c-7,0.9-12.6,1.1-15.4,1.1c-1.4,0-2.2,0-2.2,0s-0.8,0-2.2,0c-2.9,0-8.4-0.2-15.4-1.1c-11-1.5-20.9-5.3-28.2-12.2v0
								C7.3,98.6,3.4,88.6,1.9,77.6C0.5,67.1,0.9,60,0.9,60s-0.3-7.1,1-17.6c1.5-11,5.3-20.9,12.2-28.2C21.4,7.3,31.4,3.4,42.4,1.9
								c7-0.9,12.6-1.1,15.4-1.1c1.4,0,2.2,0,2.2,0S60.8,0.8,62.2,0.8 M62.2,0L62.2,0C60.8,0,60,0,60,0c0,0-0.8,0-2.2,0
								c-2.7,0-8.4,0.1-15.6,1.1C30.5,2.7,20.5,6.9,13.6,13.5c-6.6,7-10.9,16.9-12.5,28.7C-0.3,52.7,0,60,0,60c0,0-0.3,7.3,1.1,17.7
								c1.6,11.8,5.9,21.7,12.4,28.7c7,6.6,16.9,10.9,28.7,12.5c7.2,1,12.8,1.1,15.5,1.1c1.4,0,2.2,0,2.2,0c0,0,0.8,0,2.2,0
								c2.7,0,8.4-0.1,15.5-1.1c11.8-1.6,21.7-5.9,28.7-12.4c6.6-7,10.9-16.9,12.5-28.7C120.3,67.3,120,60,120,60
								c0,0,0.3-7.3-1.1-17.7c-1.6-11.8-5.9-21.7-12.4-28.7c-7-6.6-16.9-10.9-28.7-12.5C70.6,0.1,64.9,0,62.2,0"/>
						</g>
					</g>
				</g>
			</g>
			<g>
				<path class="st3" d="M57.8,27.1L25.6,81.7h20.9l14,14v-14h34.9L63.3,27.1C62.1,25,59,25,57.8,27.1"/>
			</g>
			<g>
				<path class="st4" d="M64,64.3c-1.9,0-3.5,1.6-3.5,3.5v31.4h7V67.8C67.5,65.9,66,64.3,64,64.3"/>
			</g>
		</g>
	</g>
	<g>
		<g>
			<g>
				<defs>
					<polygon id="SVGID_3_" points="52.4,36.3 68.7,36.3 60.5,22.4 					"/>
				</defs>
				<clipPath id="SVGID_4_">
					<use xlink:href="#SVGID_3_"  style="overflow:visible;"/>
				</clipPath>
				<path class="st5" d="M57.8,27.1L25.6,81.7h20.9l14,14v-14h34.9L63.3,27.1C62.1,25,59,25,57.8,27.1"/>
			</g>
		</g>
	</g>
</g>
</svg>
