<?xml version="1.0" encoding="utf-8"?>
<!-- Generator: Adobe Illustrator 24.2.1, SVG Export Plug-In . SVG Version: 6.00 Build 0)  -->
<svg version="1.1" id="Layer_1" xmlns="http://www.w3.org/2000/svg" xmlns:xlink="http://www.w3.org/1999/xlink" x="0px" y="0px"
	 viewBox="0 0 120 120" style="enable-background:new 0 0 120 120;" xml:space="preserve">
<style type="text/css">
	.st0{fill:#E95B31;}
	.st1{fill:#FFFFFF;}
	.st2{clip-path:url(#SVGID_2_);}
	.st3{fill:#C34500;}
</style>
<g>
	<g id="icon_notes" transform="translate(-808 -127)">
		<path id="bg-2" class="st0" d="M926.9,169.1c-1.5-11.1-5.4-21.2-12.4-28.6l0,0c-7.4-7-17.5-10.9-28.6-12.4
			c-5.9-0.8-11.9-1.2-17.9-1.1c-6-0.1-12,0.2-17.9,1.1c-11.1,1.5-21.2,5.4-28.6,12.4c-7,7.4-10.9,17.5-12.4,28.6
			c-0.8,5.9-1.2,11.9-1.1,17.9c-0.1,6,0.2,12,1.1,17.9c1.5,11.1,5.4,21.2,12.4,28.6c7.4,7,17.5,10.9,28.6,12.4
			c5.9,0.8,11.9,1.2,17.9,1.1c6,0.1,12-0.2,17.9-1.1c11.1-1.5,21.2-5.4,28.6-12.4l0,0c7-7.4,10.9-17.5,12.4-28.6
			c0.8-5.9,1.2-11.9,1.1-17.9C928.1,181,927.8,175,926.9,169.1"/>
		<g id="notes_logo" transform="translate(872.142 191.64)">
			<path id="Path_411" class="st1" d="M15.4-36.2h-39.2c-4.2,0-8.1,2.2-10.3,5.7c3.8,1.2,5.9,5.2,4.8,9c-0.9,3-3.6,5-6.7,5.1v5.4
				c3.9,0.2,7,3.3,7,7.2c0,3.9-3.1,7.1-7,7.2v5.2c3.9,0.1,7,3.3,7,7.2c-0.1,3.1-2,5.8-4.9,6.9c2.3,3.5,6.2,5.6,10.3,5.5h39.4
				c6.9,0,12.4-5.6,12.4-12.4v-39.7C27.7-30.6,22.2-36.2,15.4-36.2"/>
			<g id="Group_507">
				<g id="Group_506">
					<g>
						<defs>
							<path id="SVGID_1_" d="M-23.8-36.2c-6.9,0-12.4,5.6-12.4,12.4l0.1,39.4c0,6.9,5.6,12.4,12.4,12.4h39.4
								c6.9,0,12.4-5.6,12.4-12.4L28-23.9c0-6.9-5.6-12.4-12.4-12.4C15.4-36.2-23.8-36.2-23.8-36.2z"/>
						</defs>
						<clipPath id="SVGID_2_">
							<use xlink:href="#SVGID_1_"  style="overflow:visible;"/>
						</clipPath>
						<g id="Group_505" class="st2">
							<path id="Path_412" class="st3" d="M13.9-0.1h39.4c6.9,0,12.4,5.6,12.4,12.4v39.4c0,6.9-5.6,12.4-12.4,12.4H13.9
								c-6.9,0-12.4-5.6-12.4-12.4V12.4C1.6,5.5,7.1,0,13.9-0.1"/>
						</g>
					</g>
				</g>
			</g>
			<path id="Path_414" class="st0" d="M-4.7,33.8h41V-8.3L-4.7,33.8z"/>
		</g>
	</g>
</g>
</svg>
