<?xml version="1.0" encoding="utf-8"?>
<!-- Generator: Adobe Illustrator 24.2.1, SVG Export Plug-In . SVG Version: 6.00 Build 0)  -->
<svg version="1.1" id="Layer_1" xmlns="http://www.w3.org/2000/svg" xmlns:xlink="http://www.w3.org/1999/xlink" x="0px" y="0px"
	 viewBox="0 0 120 120" style="enable-background:new 0 0 120 120;" xml:space="preserve">
<style type="text/css">
	.st0{fill:#F36C3F;}
	.st1{fill:none;}
	.st2{fill:#FFFFFF;}
</style>
<g>
	<g id="icon_DeX" transform="translate(-808 -127)">
		<g id="DeX_logo" transform="translate(841 160)">
			<path id="bg-2" class="st0" d="M85.9,9.1C84.4-2,80.5-12.1,73.5-19.5l0,0c-7.4-7-17.5-10.9-28.6-12.4C39-32.7,33-33.1,27-33
				c-6-0.1-12,0.2-17.9,1.1C-2-30.4-12.1-26.5-19.5-19.5c-7,7.4-10.9,17.5-12.4,28.6C-32.8,15-33.1,21-33,27c-0.1,6,0.2,12,1.1,17.9
				c1.5,11.1,5.4,21.2,12.4,28.6c7.4,7,17.5,10.9,28.6,12.4C15,86.7,21,87.1,27,87c6,0.1,12-0.2,17.9-1.1
				c11.1-1.5,21.2-5.4,28.6-12.4l0,0c7-7.4,10.9-17.5,12.4-28.6C86.8,39,87.1,33,87,27C87.1,21,86.8,15,85.9,9.1"/>
			<path id="line" class="st1" d="M85.9,9.1C84.4-2,80.5-12.1,73.5-19.5l0,0c-7.4-7-17.5-10.9-28.6-12.4C39-32.7,33-33.1,27-33
				c-6-0.1-12,0.2-17.9,1.1C-2-30.4-12.1-26.5-19.5-19.5c-7,7.4-10.9,17.5-12.4,28.6C-32.8,15-33.1,21-33,27c-0.1,6,0.2,12,1.1,17.9
				c1.5,11.1,5.4,21.2,12.4,28.6c7.4,7,17.5,10.9,28.6,12.4C15,86.7,21,87.1,27,87c6,0.1,12-0.2,17.9-1.1
				c11.1-1.5,21.2-5.4,28.6-12.4l0,0c7-7.4,10.9-17.5,12.4-28.6C86.8,39,87.1,33,87,27C87.1,21,86.8,15,85.9,9.1"/>
			<path id="Path_450" class="st2" d="M25.9,16.6c-7.5-0.1-13.6,5.9-13.6,13.4c0,0.1,0,0.2,0,0.3c0,7.4,6.3,13.4,13.9,13.4v-5.2
				c-4.6,0-8.7-3.6-8.7-8.2c-0.1-4.6,3.6-8.4,8.2-8.5c3.8-0.1,7.1,2.4,8.1,6H23.7V33h15.5v-2.7C39,23.2,33.3,16.6,25.9,16.6 M-6.5,9
				H-12c-3,0-5.5,2.7-5.5,6v28.7h5.2V15c0-0.3,0.1-0.6,0.3-0.8h4.4c6.8,0,12.3,5.4,12.3,12.2c0,0,0,0.1,0,0.1
				C4.7,32.7,0,38-6.3,38.5l0.5,5.2C3.2,42.9,10,35.4,9.8,26.5C10,17.2,2.7,9.4-6.5,9 M43.4,10.1l-4.1,3.3l9.8,12.6
				c0.5,0.6,0.5,1.6,0,2.2L39.3,41l4.1,3.3l9.8-12.8c1.9-2.6,1.9-6.1,0-8.7L43.4,10.1z M61.4,25.9l9.8-12.6l-4.1-3.3l-9.8,12.6
				c-1.9,2.6-1.9,6.1,0,8.7l9.8,12.8l4.1-3.3l-9.8-12.8C61.1,27.4,61.1,26.6,61.4,25.9"/>
		</g>
	</g>
</g>
</svg>
