<?xml version="1.0" encoding="utf-8"?>
<!-- Generator: Adobe Illustrator 24.0.0, SVG Export Plug-In . SVG Version: 6.00 Build 0)  -->
<svg version="1.1" id="Layer_1" xmlns="http://www.w3.org/2000/svg" xmlns:xlink="http://www.w3.org/1999/xlink" x="0px" y="0px"
	 viewBox="0 0 120 120" style="enable-background:new 0 0 120 120;" xml:space="preserve">
<style type="text/css">
	.st0{fill:#8064F4;}
	.st1{fill:#FFFFFF;}
	.st2{fill:#BFBFF7;}
	.st3{fill:#FFF764;}
</style>
<g>
	<g id="icon_game_launcher" transform="translate(-808 -127)">
		<path id="bg-2" class="st0" d="M926.9,169.1c-1.5-11.1-5.4-21.2-12.4-28.6l0,0c-7.4-7-17.5-10.9-28.6-12.4
			c-5.9-0.8-11.9-1.2-17.9-1.1c-6-0.1-12,0.2-17.9,1.1c-11.1,1.5-21.2,5.4-28.6,12.4c-7,7.4-10.9,17.5-12.4,28.6
			c-0.8,5.9-1.2,11.9-1.1,17.9c-0.1,6,0.2,12,1.1,17.9c1.5,11.1,5.4,21.2,12.4,28.6c7.4,7,17.5,10.9,28.6,12.4
			c5.9,0.8,11.9,1.2,17.9,1.1c6,0.1,12-0.2,17.9-1.1c11.1-1.5,21.2-5.4,28.6-12.4l0,0c7-7.4,10.9-17.5,12.4-28.6
			c0.8-5.9,1.2-11.9,1.1-17.9C928.1,181,927.8,175,926.9,169.1"/>
		<g id="logo" transform="translate(871 190.837)">
			<path id="Path_383" class="st1" d="M-21.6-7.1c-8,0-14.5-6.5-14.5-14.5s6.5-14.5,14.5-14.5s14.5,6.4,14.5,14.4
				C-7-13.7-13.5-7.1-21.5-7C-21.5-7.1-21.6-7.1-21.6-7.1 M-21.6-29.9c-4.5,0-8.1,3.6-8.1,8.1s3.6,8.1,8.1,8.1s8.1-3.6,8.1-8.1l0,0
				C-13.5-26.3-17.1-29.9-21.6-29.9C-21.5-29.9-21.6-29.9-21.6-29.9"/>
			<path id="Path_384" class="st2" d="M-21.6,28.6c-8,0-14.5-6.5-14.5-14.5s6.5-14.5,14.5-14.5S-7,6-7,14
				C-7.1,22-13.6,28.5-21.6,28.6 M-21.6,5.8c-4.5,0-8.1,3.6-8.1,8.1s3.6,8.1,8.1,8.1s8.1-3.6,8.1-8.1S-17.1,5.8-21.6,5.8
				C-21.5,5.8-21.6,5.8-21.6,5.8"/>
			<path id="Path_385" class="st1" d="M15.6,28.6C7.6,28.6,1,22,1,14S7.6-0.5,15.6-0.5S30.1,6,30.1,14S23.6,28.5,15.6,28.6
				 M15.6,5.8c-4.5,0-8.1,3.6-8.1,8.1s3.6,8.1,8.1,8.1s8.1-3.6,8.1-8.1S20.1,5.8,15.6,5.8"/>
			<g id="Group_493" transform="translate(40.892 1.214)">
				<path id="Path_386" class="st3" d="M-16.9-9.6c-0.8,0-1.6-0.3-2.2-0.9l-20.2-20.4c-1.2-1.1-1.4-3-0.3-4.2
					c0.1-0.1,0.2-0.2,0.3-0.3c1.1-1.2,3-1.4,4.2-0.3c0.1,0.1,0.2,0.2,0.3,0.3l20.2,20.2c1.2,1.1,1.4,3,0.3,4.2
					c-0.1,0.1-0.2,0.2-0.3,0.3C-15.2-10-16-9.6-16.9-9.6"/>
				<path id="Path_387" class="st3" d="M-37.1-9.6c-0.8,0-1.6-0.3-2.2-0.9c-1.2-1.1-1.4-3-0.3-4.2c0.1-0.1,0.2-0.2,0.3-0.3
					l20.2-20.2c1.1-1.2,3-1.4,4.2-0.3c0.1,0.1,0.2,0.2,0.3,0.3c1.2,1.2,1.3,3.2,0.1,4.4l-0.1,0.1l-20.2,20.1
					C-35.5-10-36.3-9.6-37.1-9.6"/>
			</g>
		</g>
	</g>
</g>
</svg>
