<?xml version="1.0" encoding="utf-8"?>
<!-- Generator: Adobe Illustrator 24.2.1, SVG Export Plug-In . SVG Version: 6.00 Build 0)  -->
<svg version="1.1" id="Layer_1" xmlns="http://www.w3.org/2000/svg" xmlns:xlink="http://www.w3.org/1999/xlink" x="0px" y="0px"
	 viewBox="0 0 120 120" style="enable-background:new 0 0 120 120;" xml:space="preserve">
<style type="text/css">
	.st0{fill:#6693ED;}
	.st1{fill:none;}
	.st2{fill-rule:evenodd;clip-rule:evenodd;fill:#1D57B5;}
	.st3{fill:#005CB9;}
	.st4{fill-rule:evenodd;clip-rule:evenodd;fill:#FFFFFF;}
</style>
<g>
	<g id="icon_smartswitch" transform="translate(-808 -127)">
		<g id="smartswitch_logo" transform="translate(841 160)">
			<path id="bg-2" class="st0" d="M85.9,9.1C84.4-2,80.5-12.1,73.5-19.5l0,0c-7.4-7-17.5-10.9-28.6-12.4C39-32.7,33-33.1,27-33
				c-6-0.1-12,0.2-17.9,1.1C-2-30.4-12.1-26.5-19.5-19.5c-7,7.4-10.9,17.5-12.4,28.6C-32.7,15-33.1,21-33,27c-0.1,6,0.2,12,1.1,17.9
				c1.5,11.1,5.4,21.2,12.4,28.6c7.4,7,17.5,10.9,28.6,12.4C15,86.8,21,87.1,27,87c6,0.1,12-0.2,17.9-1.1
				c11.1-1.5,21.2-5.4,28.6-12.4l0,0c7-7.4,10.9-17.5,12.4-28.6C86.8,39,87.1,33,87,27C87.1,21,86.8,15,85.9,9.1"/>
			<path id="line" class="st1" d="M85.9,9.1C84.4-2,80.5-12.1,73.5-19.5l0,0c-7.4-7-17.5-10.9-28.6-12.4C39-32.7,33-33.1,27-33
				c-6-0.1-12,0.2-17.9,1.1C-2-30.4-12.1-26.5-19.5-19.5c-7,7.4-10.9,17.5-12.4,28.6C-32.7,15-33.1,21-33,27c-0.1,6,0.2,12,1.1,17.9
				c1.5,11.1,5.4,21.2,12.4,28.6c7.4,7,17.5,10.9,28.6,12.4C15,86.7,21,87.1,27,87c6,0.1,12-0.2,17.9-1.1
				c11.1-1.5,21.2-5.4,28.6-12.4l0,0c7-7.4,10.9-17.5,12.4-28.6C86.8,39,87.1,33,87,27C87.1,21,86.8,15,85.9,9.1"/>
			<g>
				<g id="Group_627" transform="translate(0 0)">
					<path id="Path_434" class="st2" d="M27.4,20.1c-0.1,0-0.2,0-0.3,0c-6,0-10.9-4.9-10.9-10.9S21.1-1.6,27.1-1.6
						c5.8,0,10.6,4.5,10.9,10.3h-3.1l8.4,8.8l8-8.8h-2.7C48.1-3,38.2-12.1,26.5-11.6C14.8-11.2,5.8-1.3,6.2,10.4
						C6.7,21.8,16,30.7,27.4,30.7L27.4,20.1z"/>
				</g>
			</g>
			<g>
				<g id="Group_628" transform="translate(0)">
					<rect id="Rectangle_1710" x="38" y="8.5" class="st3" width="10.6" height="2"/>
				</g>
			</g>
			<g>
				<g id="Group_629" transform="translate(0 0)">
					<path id="Path_435" class="st4" d="M27.4,20.1v10.6c6,0.2,10.7,5.2,10.6,11.2c-0.2,6-5.2,10.7-11.2,10.6
						c-5.9-0.2-10.6-5-10.6-10.9c0-0.1,0-0.2,0-0.3h0v-0.1l3,0.1l-7.2-9L3.2,41l3,0.1v0.3l0,0l0,0c0,0,0,0,0,0.1v0.2h0
						C6.4,53.3,16,62.7,27.7,62.5c11.7-0.2,21.1-9.8,20.9-21.5C48.4,29.4,39,20.1,27.4,20.1z"/>
				</g>
			</g>
		</g>
	</g>
</g>
</svg>
