<?xml version="1.0" encoding="utf-8"?>
<!-- Generator: Adobe Illustrator 24.2.1, SVG Export Plug-In . SVG Version: 6.00 Build 0)  -->
<svg version="1.1" id="Layer_1" xmlns="http://www.w3.org/2000/svg" xmlns:xlink="http://www.w3.org/1999/xlink" x="0px" y="0px"
	 viewBox="0 0 120 120" style="enable-background:new 0 0 120 120;" xml:space="preserve">
<style type="text/css">
	.st0{fill:#FFFFFF;}
	.st1{opacity:0.1;}
	.st2{fill:none;}
</style>
<g>
	<g id="icon_Bixby" transform="translate(-808 -127)">
		<g id="Bixby_logo" transform="translate(841 160)">
			<path id="bg-2" class="st0" d="M85.9,9.1C84.4-2,80.5-12.1,73.5-19.5l0,0c-7.4-7-17.5-10.9-28.6-12.4C39-32.7,33-33.1,27-33
				c-6-0.1-12,0.2-17.9,1.1C-2-30.4-12.1-26.5-19.5-19.5c-7,7.4-10.9,17.5-12.4,28.6C-32.7,15-33.1,21-33,27c-0.1,6,0.2,12,1.1,17.9
				c1.5,11.1,5.4,21.2,12.4,28.6c7.4,7,17.5,10.9,28.6,12.4C15,86.7,21,87.1,27,87c6,0.1,12-0.2,17.9-1.1
				c11.1-1.5,21.2-5.4,28.6-12.4l0,0c7-7.4,10.9-17.5,12.4-28.6C86.7,39,87.1,33,87,27C87.1,21,86.7,15,85.9,9.1"/>
			<g class="st1">
				<path d="M29.4,87c-0.8,0-1.6,0-2.4,0c-5.9,0.1-11.9-0.2-17.8-1.1C-2.6,84.3-12.5,80-19.5,73.5c-6.6-7-10.9-16.9-12.4-28.7
					c-0.8-5.9-1.2-11.9-1.1-17.8c-0.1-5.9,0.2-11.9,1.1-17.8c1.6-11.8,5.9-21.7,12.4-28.7c7-6.6,16.9-10.9,28.7-12.4
					c5.9-0.8,11.9-1.2,17.8-1.1c5.9-0.1,11.9,0.2,17.8,1.1c11.8,1.6,21.7,5.9,28.7,12.4c6.6,7,10.9,16.9,12.4,28.7
					c0.8,5.9,1.2,11.9,1.1,17.8c0.1,5.9-0.2,11.9-1.1,17.8C84.3,56.6,80,66.5,73.5,73.5c-7,6.6-16.9,10.9-28.7,12.4
					C39.7,86.6,34.5,87,29.4,87z M27,85.6c5.9,0.1,11.8-0.2,17.6-1c11.5-1.5,21.2-5.7,28-12.1c6.3-6.7,10.5-16.4,12-27.9
					c0.8-5.8,1.2-11.7,1-17.6c0.1-5.9-0.2-11.8-1-17.6l0,0c-1.5-11.5-5.7-21.2-12.1-28c-6.7-6.3-16.4-10.5-27.9-12
					c-5.8-0.8-11.7-1.2-17.6-1c-5.9-0.1-11.8,0.2-17.6,1c-11.5,1.5-21.2,5.7-28,12.1c-6.3,6.7-10.5,16.4-12,27.9
					c-0.8,5.8-1.2,11.7-1,17.6c-0.1,5.9,0.2,11.8,1,17.6c1.5,11.5,5.7,21.2,12.1,28c6.7,6.3,16.4,10.5,27.9,12
					C15.2,85.4,21.1,85.8,27,85.6z"/>
			</g>
			<path id="line" class="st2" d="M85.9,9.1C84.4-2,80.5-12.1,73.5-19.5l0,0c-7.4-7-17.5-10.9-28.6-12.4C39-32.7,33-33.1,27-33
				c-6-0.1-12,0.2-17.9,1.1C-2-30.4-12.1-26.5-19.5-19.5c-7,7.4-10.9,17.5-12.4,28.6C-32.7,15-33.1,21-33,27c-0.1,6,0.2,12,1.1,17.9
				c1.5,11.1,5.4,21.2,12.4,28.6c7.4,7,17.5,10.9,28.6,12.4C15,86.7,21,87.1,27,87c6,0.1,12-0.2,17.9-1.1
				c11.1-1.5,21.2-5.4,28.6-12.4l0,0c7-7.4,10.9-17.5,12.4-28.6C86.7,39,87.1,33,87,27C87.1,21,86.7,15,85.9,9.1"/>
			<g>
				<path d="M-5.5,37.5c-1.5,0-2.9-0.3-4.2-0.8s-2.4-1.3-3.4-2.3c-1-1-1.7-2-2.3-3.3c-0.5-1.2-0.8-2.6-0.8-4.1s0.3-2.8,0.8-4.1
					c0.5-1.2,1.3-2.4,2.3-3.3c1-1,2.1-1.7,3.4-2.3c1.3-0.5,2.7-0.8,4.2-0.8s2.9,0.3,4.2,0.8c1.3,0.5,2.4,1.3,3.4,2.3
					c1,1,1.7,2.1,2.3,3.3c0.5,1.2,0.8,2.6,0.8,4.1s-0.3,2.8-0.8,4.1c-0.5,1.2-1.3,2.4-2.3,3.3c-1,1-2.1,1.7-3.4,2.3
					C-2.6,37.3-4,37.5-5.5,37.5z M-5.5,33.7c1,0,1.8-0.2,2.7-0.5s1.5-0.8,2.2-1.4c0.6-0.6,1.1-1.3,1.5-2.1c0.4-0.8,0.5-1.7,0.5-2.6
					c0-0.9-0.2-1.8-0.5-2.6c-0.4-0.8-0.8-1.5-1.5-2.1c-0.6-0.6-1.4-1.1-2.2-1.4s-1.7-0.5-2.7-0.5s-1.8,0.2-2.7,0.5
					c-0.8,0.4-1.5,0.8-2.1,1.4c-0.6,0.6-1.1,1.3-1.4,2.1c-0.4,0.8-0.5,1.7-0.5,2.6c0,0.9,0.2,1.8,0.5,2.6c0.4,0.8,0.8,1.5,1.4,2.1
					c0.6,0.6,1.3,1.1,2.1,1.4C-7.3,33.5-6.4,33.7-5.5,33.7z"/>
				<path d="M7.3,20.8h3.8V23c0.5-0.7,1.2-1.2,2.1-1.7c0.8-0.4,1.8-0.7,2.9-0.7c2.1,0,3.7,0.6,4.9,1.8c1.2,1.2,1.8,3,1.8,5.2v9.8
					h-3.9v-9.3c0-1.2-0.3-2.3-1-3c-0.7-0.7-1.5-1-2.9-1c-1.1,0-2,0.4-2.8,1.1c-0.8,0.8-1.1,1.8-1.1,3.3v9H7.2L7.3,20.8L7.3,20.8z"/>
				<path d="M33.2,37.5c-1.3,0-2.5-0.2-3.6-0.7c-1.1-0.4-2-1-2.8-1.8c-0.8-0.8-1.4-1.7-1.8-2.7c-0.4-1-0.7-2.1-0.7-3.3
					s0.2-2.3,0.7-3.3c0.5-1,1.1-1.9,1.8-2.7c0.8-0.8,1.7-1.4,2.7-1.8c1.1-0.4,2.2-0.7,3.4-0.7c1.2,0,2.4,0.2,3.4,0.6
					c1.1,0.4,2,1,2.7,1.7c0.8,0.7,1.4,1.6,1.8,2.6c0.4,1,0.7,2.1,0.7,3.2v1.4H28c0.2,1.2,0.8,2.1,1.7,2.9c0.9,0.7,2,1.1,3.4,1.1
					c1.1,0,2-0.2,2.9-0.8c0.8-0.5,1.4-1.2,1.8-2.1l3.2,1.8c-0.7,1.4-1.7,2.4-3,3.3C36.7,37.1,35.1,37.5,33.2,37.5z M33.1,24.1
					c-1.2,0-2.1,0.2-3,0.8c-0.8,0.5-1.4,1.2-1.8,2h9.5c-0.3-0.9-0.8-1.6-1.7-2.1C35.3,24.4,34.3,24.1,33.1,24.1z"/>
				<path d="M55.6,37.5c-1.1,0-2.1-0.2-3-0.5c-0.9-0.3-1.7-0.8-2.4-1.4c-0.7-0.6-1.2-1.4-1.5-2.3c-0.4-1-0.5-2-0.5-3.2V16.6H52v13.7
					c0,0.5,0.1,1,0.3,1.4c0.2,0.4,0.4,0.8,0.8,1.1c0.3,0.3,0.7,0.6,1.1,0.8c0.4,0.2,0.9,0.3,1.4,0.3c0.5,0,1-0.1,1.4-0.3
					c0.4-0.2,0.8-0.4,1.1-0.8c0.4-0.3,0.6-0.7,0.8-1.1c0.2-0.4,0.3-0.9,0.3-1.4V16.6h3.9v13.5c0,1.2-0.2,2.3-0.6,3.2
					c-0.4,1-0.9,1.7-1.5,2.3s-1.5,1.1-2.4,1.4C57.7,37.4,56.7,37.5,55.6,37.5z"/>
				<path d="M66.3,16.6h3.9v20.9h-3.9V16.6z"/>
			</g>
		</g>
	</g>
</g>
</svg>
