<?xml version="1.0" encoding="utf-8"?>
<!-- Generator: Adobe Illustrator 25.2.1, SVG Export Plug-In . SVG Version: 6.00 Build 0)  -->
<svg version="1.1" id="Layer_1" xmlns="http://www.w3.org/2000/svg" xmlns:xlink="http://www.w3.org/1999/xlink" x="0px" y="0px"
	 viewBox="0 0 120 120" style="enable-background:new 0 0 120 120;" xml:space="preserve">
<style type="text/css">
	.st0{fill:#FFFFFF;}
	.st1{fill:#FFFDFD;}
</style>
<g id="그룹_869" transform="translate(-123.033 95.201)">
	<path id="패스_1138" d="M170.8178101-5.9634833h-20.3909454c-1.3215332,0.0003362-2.3932037-1.0680251-2.3938751-2.3864646l0,0
		v-46.7413673c0.0016785-1.3177338,1.0730438-2.3849983,2.3938751-2.3846626h20.3879242
		c1.3214111-0.0026665,2.3948059,1.0639,2.3974762,2.3822403c0,0.0000076,0,0.0000076,0,0.0000153v46.7437744
		c-0.0016632,1.3181033-1.0738678,2.3853874-2.3950653,2.3840594l0,0"/>
	<path id="패스_1139" class="st0" d="M170.9240112-7.8123293h-20.6021576
		c-0.3972626,0.0006604-0.7198486-0.3200922-0.7205048-0.7164268c0-0.0005989,0-0.0012016,0-0.0018034l0,0v-46.3807564
		c0.0006561-0.3963356,0.3232422-0.717083,0.7205048-0.7164154l0,0h20.6021576
		c0.3972626-0.0006752,0.7198486,0.3200798,0.72052,0.7164154c0,0.0006027,0,0.0012016,0,0.0018044v46.378952
		c-0.0006714,0.396431-0.3231506,0.7173576-0.72052,0.7170258"/>
	<path id="패스_1140" d="M161.9713287-52.1389427c0.0050201,0.7422371-0.5938568,1.3480682-1.3378296,1.3533745
		c-0.7438354,0.007019-1.3525238-0.5888748-1.3595734-1.3309784c0-0.0000343,0-0.0000801,0-0.0001183
		c-0.0053406-0.7421074,0.593338-1.3480377,1.3371582-1.3533745c0.0000305,0,0.0000458,0,0.0000763,0h0.0126801
		c0.7405243-0.0036659,1.343811,0.5922737,1.3474884,1.3310661
		C161.9713287-52.1389656,161.9713287-52.1389503,161.9713287-52.1389427"/>
	<g id="그룹_862">
		<g id="그룹_859">
			<path id="사각형_3458" class="st0" d="M167.723938-63.7853012h38.9450226
				c2.1016235,0,3.8053284,1.6997185,3.8053284,3.7964325v49.5745468c0,2.0973759-1.7042542,3.7976365-3.8065338,3.7976365
				H167.723938c-2.101944,0-3.8059082-1.6999907-3.8059082-3.7970347v-49.574543
				C163.9180298-62.0853157,165.621994-63.7853012,167.723938-63.7853012z"/>
			<path id="패스_1146" d="M206.6677551-62.869606c1.5947266-0.0003319,2.8877563,1.2891502,2.8880768,2.8801346
				c0,0.0002098,0,0.0004005,0,0.0006027v49.5751457c0,1.5913162-1.2930298,2.8813353-2.8880768,2.8813391h-38.9438019
				c-1.595047-0.0000038-2.888092-1.2900229-2.888092-2.8813391v-49.5751457c0-1.590992,1.2927856-2.8807373,2.8874969-2.8807373
				c0.0001984,0,0.0003967,0,0.0005951,0H206.6677551 M206.6677551-64.7009964h-38.9438019
				c-2.6075287,0.002655-4.7207489,2.1106911-4.7237549,4.7121277v49.5751457
				c0.002655,2.6016669,2.1159973,4.7100735,4.7237549,4.7127261h38.9438019
				c2.6075287-0.0026526,4.7207794-2.110692,4.7237701-4.7121234v-49.5757484
				c-0.0033417-2.6012039-2.1164703-4.7088699-4.7237701-4.711525V-64.7009964z"/>
		</g>
		<g id="그룹_860">
			<path id="패스_1147" class="st1" d="M169.9307404-47.3190536c-1.4187164-0.0013313-2.5686493-1.148056-2.5706482-2.5634613
				v-7.3406029c0.0019989-1.4155045,1.1518402-2.5624161,2.5706482-2.5640793
				c1.4187317,0.0016632,2.5684052,1.1486664,2.5700684,2.5640793v7.3406029
				C172.4991455-48.467205,171.3493652-47.320385,169.9307404-47.3190536z"/>
			<path id="패스_1148" d="M169.9307404-59.4819565c1.2504425,0,2.2641144,1.0113068,2.2641144,2.2588387v7.3406029
				c0,1.2475204-1.0136719,2.2588387-2.2641144,2.2588387c-1.2504272,0.0003319-2.264389-1.0107155-2.2647247-2.2582283
				c0-0.0002098,0-0.0004082,0-0.0006104v-7.3406029c0-1.2475319,1.0136871-2.2588387,2.2641296-2.2588387
				C169.9303436-59.4819565,169.930542-59.4819565,169.9307404-59.4819565 M169.9307404-60.0924187
				c-1.5877838,0.0016594-2.8746185,1.2852097-2.8766174,2.8693008v7.3406029
				c0.0019989,1.5840797,1.2888336,2.8676414,2.8766174,2.8693008c1.5876923-0.0016594,2.8743591-1.2853203,2.8760223-2.8693008
				v-7.3406029C172.8050995-58.807106,171.5184326-60.0907593,169.9307404-60.0924187z"/>
		</g>
		<g id="그룹_861">
			<ellipse id="타원_72" cx="169.9307404" cy="-56.6584244" rx="1.1320629" ry="1.1294147"/>
			<ellipse id="타원_73" cx="169.9307404" cy="-53.5531273" rx="1.1320629" ry="1.1294147"/>
			<ellipse id="타원_74" cx="169.9307404" cy="-50.4472237" rx="1.1320629" ry="1.1294147"/>
		</g>
		<path id="패스_1149" d="M188.0449219-63.4361229V-7.532383h-1.6981049v-55.9037399H188.0449219 M189.2686768-64.6570511
			h-4.1438293v58.3449898h4.1456451v-58.3431816L189.2686768-64.6570511z"/>
		<ellipse id="타원_75" cx="198.8006897" cy="-60.046669" rx="1.2280695" ry="1.2252049"/>
	</g>
	<g id="그룹_868">
		<g id="그룹_864">
			<g id="그룹_863">
				<path id="패스_1150" class="st0" d="M197.3421478-6.6130776c-2.1477203-0.001328-3.8884735-1.7380052-3.889801-3.8807168
					v-21.678669c0-1.2620697,1.0244598-2.2857399,2.2894745-2.2877274h19.1695862
					c1.2650146,0.0019875,2.2894592,1.0256577,2.2894592,2.2877274v21.678669
					c-0.0016479,2.141634-1.7407227,3.8777285-3.8873749,3.8807168H197.3421478z"/>
				<path id="패스_1151" d="M214.9144135-33.6311874c0.8071747,0.0003319,1.4612732,0.6534233,1.4609528,1.4587212
					c0,0.0000038,0,0.0000038,0,0.0000038v21.678669c0.0009766,1.6854162-1.367691,3.0525227-3.0570526,3.0535226
					c-0.0003967,0-0.0007935,0-0.0012054,0h-15.9749603c-1.6893616-0.0003362-3.0585785-1.3669057-3.0582275-3.0523219
					c0-0.0003977,0-0.0007992,0-0.0012007v-21.678669c-0.000351-0.8052979,0.6537323-1.4583931,1.4609222-1.458725l0,0h19.1695862
					 M214.9144287-35.2855835h-19.1689911c-1.7218475,0.0026588-3.1166534,1.3952866-3.117981,3.113121v21.678669
					c0.0019989,2.5978756,2.1113586,4.703927,4.7153168,4.7079115h15.9749298
					c2.6039581-0.0039806,4.7133179-2.1100359,4.7152863-4.7079115v-21.678669
					c-0.0013123-1.7178345-1.3961182-3.1104622-3.117981-3.113121H214.9144287z"/>
			</g>
		</g>
		<g id="그룹_867">
			<g id="그룹_866">
				<g id="그룹_865">
					<path id="패스_1152" d="M208.4237823-15.0698576c0.8276062,0.0006638,1.4980774,0.6703739,1.4977417,1.4960546v2.5225248
						c0.0013275,0.8255844-0.6684265,1.4959278-1.4959259,1.4972601c-0.0006104,0-0.0012054,0-0.0018158,0h-10.2585297
						c-0.8275146-0.0003319-1.4980774-0.6698685-1.497757-1.4954529v-2.5225248
						c-0.0003204-0.8256807,0.6701508-1.4953909,1.497757-1.4960585h10.2585297 M208.4237823-15.8952494h-10.2585297
						c-1.2848816,0.001997-2.3256226,1.0413733-2.3262787,2.3232536v2.5225248
						c0.0010071,1.2816448,1.041626,2.3206587,2.3262787,2.3226509h10.2585297
						c1.2846527-0.0019922,2.3252716-1.0410061,2.3262634-2.3226509v-2.5225248
						C210.7493896-14.8538761,209.7086639-15.8932524,208.4237823-15.8952494z"/>
				</g>
			</g>
			<ellipse id="타원_76" cx="213.1161499" cy="-14.0494108" rx="1.2008557" ry="1.198047"/>
			<ellipse id="타원_77" cx="213.1161499" cy="-10.6930656" rx="1.2008557" ry="1.198047"/>
		</g>
		<rect id="사각형_3459" x="193.6044312" y="-18.2642536" width="23.7485085" height="1.1029285"/>
	</g>
</g>
</svg>
